<svg width="732" height="1088" viewBox="0 0 732 1088" fill="none" xmlns="http://www.w3.org/2000/svg">
<path d="M86.2078 933.348C77.5528 928.293 69.06 923.207 60.8478 918.204C41.0385 906.217 21.2248 881.466 15.5644 861.319C8.81056 838.556 8.81056 814.321 15.5644 791.557C35.7639 718.467 84.8662 582.468 90.2021 570.661C98.4903 550.863 109.904 532.524 124.007 516.345C132.681 507.616 142.461 500.062 153.098 493.875C183.211 475.973 233.37 454.462 258.068 448.683C273.111 508.107 340.238 713.267 362.02 759.546H368.018C389.801 713.166 457.024 507.287 471.892 448.328C496.007 453.59 547.582 475.604 578.291 493.866C588.927 500.049 598.708 507.599 607.383 516.323C621.486 532.503 632.901 550.841 641.192 570.639C646.523 582.446 695.625 718.445 715.825 791.535C722.579 814.299 722.579 838.534 715.825 861.297C710.164 881.444 690.355 906.195 670.542 918.182C643.844 934.444 614.209 951.592 585.482 965.688C585.084 965.894 584.676 966.079 584.259 966.241C559.232 978.395 535.533 989.33 516.553 998.099C515.404 998.597 514.105 998.62 512.94 998.162C511.774 997.704 510.838 996.803 510.336 995.656C502.781 979.618 489.544 954.047 476.842 929.889C425.789 929.889 312.923 929.889 254.591 929.889C241.876 954.043 228.643 979.618 221.089 995.656C220.587 996.803 219.65 997.704 218.485 998.162C217.32 998.62 216.02 998.597 214.872 998.099C195.891 989.33 172.197 978.395 147.166 966.241C146.75 966.079 146.343 965.895 145.947 965.688C126.024 955.95 105.693 944.726 86.2078 933.348Z" fill="#004485" fill-opacity="0.7"/>
<path d="M279.675 1006.66C272.344 1014.11 269.66 1022.96 273.352 1028.46C277.044 1033.96 283.713 1040.99 292.118 1039.5C291.886 1039.89 285.068 1052.66 295.665 1059.89C301.882 1064.12 311.954 1063.89 322.459 1062.3C323.058 1066.65 325.256 1070.63 328.626 1073.46C331.997 1076.29 336.298 1077.76 340.694 1077.59C348.025 1076.99 353.181 1072.22 360.065 1069.79C371.136 1065.88 418.818 1030.73 443.02 1011.4C458.804 998.79 477.417 988.544 487.334 981.055C487.334 981.055 491.85 977.644 498.835 972.387C484.085 943.287 463.759 905.181 452.298 883.631L439.232 884.104C420.036 884.797 395.689 886.406 377.954 888.962C362.134 891.238 356.527 897.731 347.508 905.685C344.502 908.601 342.404 912.324 341.466 916.405L338.269 913.147C327.308 901.984 300.699 894.447 280.806 886.402C280.806 886.402 279.841 886.012 278.175 885.31C266.846 906.65 247.764 942.427 233.488 970.51C234.9 971.672 235.808 972.426 235.808 972.426C247.466 982.12 259.331 991.437 270.388 1001.63" fill="white"/>
<path d="M471.291 450.691C455.305 512.57 389.519 713.785 368.018 759.568H362.019C340.478 713.789 274.57 512.579 258.545 450.7" fill="white"/>
<path d="M278.009 896.559C288.352 900.716 298.932 904.245 309.266 908.397L310.928 909.072C312.796 909.835 310.125 908.709 311.265 909.213C312.405 909.717 313.646 910.248 314.826 910.791C317.075 911.822 319.298 912.905 321.473 914.08C323.575 915.204 325.615 916.441 327.585 917.785C327.966 918.052 328.334 918.35 328.729 918.6C329.825 919.302 327.072 917.162 328.475 918.412C329.268 919.122 330.071 919.815 330.829 920.569C332.808 922.516 335.476 923.602 338.252 923.59C341.028 923.579 343.687 922.471 345.65 920.508C347.613 918.545 348.721 915.886 348.732 913.11C348.743 910.334 347.657 907.666 345.71 905.688C337.18 898.198 327.264 892.454 316.523 888.781C305.662 884.304 294.499 880.626 283.608 876.25C280.917 875.515 278.044 875.875 275.618 877.252C273.191 878.629 271.409 880.911 270.66 883.598C270.001 886.286 270.395 889.124 271.762 891.531C273.128 893.937 275.363 895.73 278.009 896.542V896.559Z" fill="#211715"/>
<path d="M277.842 994.202C266.732 983.982 254.867 974.638 243.261 964.997C241.239 963.092 238.585 961.999 235.808 961.928C233.723 961.923 231.683 962.537 229.948 963.693C228.213 964.849 226.86 966.494 226.061 968.42C225.263 970.346 225.054 972.466 225.462 974.511C225.871 976.555 226.877 978.433 228.354 979.904C239.96 989.55 251.824 998.889 262.934 1009.11C264.913 1011.06 267.581 1012.14 270.357 1012.13C273.133 1012.12 275.792 1011.01 277.755 1009.05C279.718 1007.09 280.826 1004.43 280.837 1001.65C280.848 998.875 279.762 996.207 277.816 994.228L277.842 994.202Z" fill="#211715"/>
<path d="M353.773 928.351C347.634 922.471 352.86 915.009 357.846 910.536C362.953 905.254 369.467 901.545 376.616 899.847C386.443 898.061 396.379 896.938 406.356 896.484C417.317 895.629 428.279 895.033 439.24 894.625C452.74 894.125 452.806 873.075 439.24 873.579C426.034 874.07 412.832 874.829 399.67 875.995C386.507 877.161 372.486 877.683 360.327 883.199C350.376 887.807 341.807 894.944 335.476 903.898C331.416 909.841 329.538 917.006 330.162 924.177C330.787 931.347 333.874 938.08 338.9 943.232C348.678 952.606 363.581 937.742 353.781 928.351H353.773Z" fill="#211715"/>
<path d="M365.69 915.435C346.837 931.259 328.474 947.688 310.169 964.143C301.417 972.012 292.717 979.939 284.068 987.925C276.584 994.874 268.069 1001.82 263.864 1011.33C261.816 1015.45 260.998 1020.07 261.508 1024.64C262.017 1029.22 263.832 1033.54 266.736 1037.11C272.813 1044.94 281.757 1051.19 292.118 1050.03L283.033 1034.19C280.53 1038.43 279.229 1043.27 279.27 1048.19C279.312 1053.12 280.695 1057.94 283.27 1062.13C292.714 1075.83 310.796 1074.51 325.256 1072.44L311.936 1062.29C312.284 1066.22 313.45 1070.02 315.358 1073.47C317.267 1076.91 319.876 1079.92 323.017 1082.3C326.158 1084.67 329.762 1086.36 333.597 1087.26C337.431 1088.16 341.411 1088.24 345.28 1087.51C352.86 1085.27 360.148 1082.15 366.992 1078.21C370.713 1076.37 374.314 1074.29 377.774 1072C401.599 1056.43 424.624 1039.66 446.76 1021.77C461.413 1010.22 477.71 1001.24 492.644 990.139C494.991 988.674 496.689 986.367 497.391 983.692C498.092 981.016 497.745 978.173 496.419 975.744C494.997 973.349 492.689 971.61 489.994 970.903C487.299 970.197 484.435 970.58 482.02 971.969C469.744 981.094 456.266 988.482 443.936 997.549C433.501 1005.22 423.496 1013.5 413.131 1021.27C395.343 1035.28 376.649 1048.11 357.171 1059.65C354.843 1060.97 358.293 1059.26 357.268 1059.65C354.74 1060.59 352.265 1061.66 349.853 1062.87C346.867 1064.93 343.499 1066.37 339.949 1067.1C339 1067.16 338.051 1067 337.176 1066.63C336.301 1066.26 335.524 1065.69 334.906 1064.97C334.25 1064.39 333.739 1063.66 333.416 1062.85C332.565 1061.26 334.06 1063.88 333.205 1062.51C332.863 1061.96 332.767 1059.77 332.982 1062.3C332.937 1060.7 332.534 1059.12 331.801 1057.69C331.068 1056.27 330.025 1055.02 328.748 1054.05C327.47 1053.07 325.991 1052.4 324.419 1052.07C322.846 1051.74 321.221 1051.77 319.662 1052.16C314.689 1052.87 304.666 1054.79 300.676 1050.4C300.085 1049.76 300.264 1047.95 300.405 1047.37C300.677 1046.26 301.067 1045.21 301.426 1044.13C300.549 1046.8 300.821 1045.51 301.207 1044.81C304.715 1038.49 300.448 1028.04 292.118 1028.98C290.638 1029.19 289.13 1028.98 287.762 1028.38C286.394 1027.78 285.221 1026.81 284.375 1025.58C282.406 1023.39 281.941 1023.36 282.525 1021.09C284.504 1016.56 287.649 1012.62 291.64 1009.69C300.221 1001.49 309.025 993.519 317.829 985.579C338.484 966.892 359.236 948.262 380.571 930.356C382.525 928.372 383.621 925.7 383.621 922.915C383.621 920.131 382.525 917.458 380.571 915.475C378.57 913.555 375.904 912.482 373.131 912.482C370.357 912.482 367.691 913.555 365.69 915.475V915.435Z" fill="#211715"/>
<path d="M376.419 949.62C366.032 957.166 356.496 965.979 346.854 974.428C336.331 983.635 325.949 993 315.194 1001.93C313.23 1003.91 312.128 1006.58 312.128 1009.37C312.128 1012.16 313.23 1014.83 315.194 1016.81C317.202 1018.71 319.865 1019.78 322.634 1019.78C325.403 1019.78 328.066 1018.71 330.075 1016.81C340.628 1008.04 350.831 998.871 361.143 989.83C366.506 985.126 371.877 980.43 377.305 975.8C379.497 973.95 381.659 972.104 383.882 970.297C384.758 969.592 385.635 968.894 386.512 968.197C388.437 966.654 384.684 969.513 385.977 968.605C386.346 968.342 386.705 968.061 387.078 967.789C389.438 966.336 391.147 964.03 391.85 961.349C392.553 958.668 392.196 955.819 390.853 953.395C389.422 951.009 387.114 949.278 384.423 948.573C381.732 947.867 378.872 948.243 376.454 949.62H376.419Z" fill="#211715"/>
<path d="M585.451 799.717C586.175 752.399 588.494 705.143 588.521 657.807C588.521 644.268 567.475 644.246 567.475 657.807C567.475 705.16 565.147 752.399 564.406 799.717C564.2 813.265 585.245 813.269 585.451 799.717Z" fill="#211715"/>
<path d="M141.348 660.309C141.47 707.285 146.671 753.98 148.227 800.885C148.665 814.394 169.711 814.451 169.273 800.885C167.716 753.971 162.516 707.285 162.393 660.309C162.354 646.77 141.308 646.743 141.348 660.309Z" fill="#211715"/>
<path d="M461.145 447.895C450.811 487.772 437.968 527.066 425.341 566.277C410.21 613.222 394.649 660.066 377.756 706.415C374.204 716.166 370.587 725.896 366.795 735.555C365.263 739.454 363.695 743.334 362.09 747.196C361.388 748.888 362.91 745.323 361.95 747.511C361.608 748.292 361.279 749.077 360.932 749.853C360.284 751.335 359.617 752.809 358.933 754.277L368.018 749.063H362.02L371.109 754.277C369.916 751.734 368.798 749.164 367.689 746.591C366.957 744.907 368.456 748.467 367.527 746.205L366.54 743.815C365.839 742.108 365.147 740.398 364.466 738.685C361.143 730.355 357.969 721.945 354.856 713.522C346.902 692.008 339.339 670.353 331.92 648.632C315.694 601.165 300.191 553.454 285.409 505.499C279.551 486.391 273.724 467.248 268.7 447.904C265.302 434.803 244.997 440.358 248.408 453.499C258.817 493.591 271.76 533.104 284.488 572.508C299.751 619.76 315.452 666.911 332.521 713.544C338.834 730.806 345.131 748.222 352.935 764.878C353.849 766.477 355.172 767.804 356.769 768.722C358.366 769.64 360.178 770.116 362.02 770.1H368.018C369.859 770.117 371.671 769.643 373.268 768.727C374.865 767.811 376.188 766.485 377.103 764.887C393.439 729.951 405.238 692.543 417.69 656.129C434.059 608.224 449.697 560.067 464.604 511.659C470.51 492.367 476.39 473.036 481.45 453.499C484.852 440.38 464.556 434.781 461.158 447.904L461.145 447.895Z" fill="#211715"/>
<path d="M313.531 746.533C292.885 710.738 272.413 674.842 252.459 638.674C242.542 620.694 232.773 602.63 223.153 584.481C218.476 575.639 213.848 566.766 209.267 557.863C208.566 556.504 206.676 550.558 207.018 555.701C205.948 557.198 206.19 557.027 207.742 555.188C208.662 554.2 209.589 553.218 210.522 552.242C214.275 548.318 218.124 544.49 222.013 540.702C231.729 531.231 216.84 516.359 207.132 525.821C200.367 531.511 194.273 537.954 188.967 545.025C183.907 553.092 187.156 560.809 191.094 568.486C198.927 583.727 206.91 598.89 215.042 613.976C231.703 644.939 248.746 675.687 266.17 706.217C275.833 723.238 285.563 740.225 295.358 757.179C302.127 768.907 320.319 758.319 313.531 746.555V746.533Z" fill="#211715"/>
<path d="M507.557 623.46C515.642 608.68 523.617 593.843 531.369 578.883C533.219 575.305 535.062 571.726 536.898 568.145C539.427 563.949 541.511 559.499 543.115 554.869C546.184 543.298 536.043 535.069 528.822 527.773C519.277 518.127 504.395 533.034 513.936 542.654C516.799 545.548 519.658 548.45 522.403 551.449C525.147 554.448 521.385 549.827 522.745 549.695C521.837 551.161 521.046 552.696 520.381 554.286C517.04 560.807 513.679 567.315 510.297 573.81C503.47 586.894 496.459 599.881 489.374 612.832C482.872 624.719 501.037 635.351 507.548 623.452L507.557 623.46Z" fill="#211715"/>
<path d="M432.313 757.158C444.051 736.81 455.67 716.382 466.951 695.775C467.649 694.582 468.104 693.263 468.292 691.894C468.48 690.525 468.397 689.132 468.046 687.795C467.696 686.458 467.086 685.204 466.251 684.103C465.415 683.002 464.371 682.076 463.178 681.378C461.985 680.681 460.666 680.225 459.297 680.037C457.928 679.849 456.535 679.933 455.199 680.283C453.862 680.634 452.607 681.244 451.506 682.079C450.405 682.914 449.479 683.958 448.782 685.151C437.496 705.759 425.877 726.168 414.144 746.535C413.446 747.728 412.991 749.046 412.803 750.416C412.615 751.785 412.699 753.177 413.049 754.514C413.399 755.851 414.009 757.106 414.845 758.207C415.68 759.308 416.724 760.234 417.917 760.931C419.11 761.629 420.429 762.084 421.798 762.272C423.167 762.46 424.56 762.377 425.897 762.026C427.233 761.676 428.488 761.066 429.589 760.23C430.69 759.395 431.616 758.351 432.313 757.158Z" fill="#211715"/>
<path d="M445.734 502.338C421.325 518.276 391.028 523.059 366.374 523.059C333.872 523.059 308.858 514.729 295.021 504.46C282.604 495.253 277.829 472.111 281.429 437.052L281.867 432.668L297.173 436.903C320.869 443.031 345.341 445.618 369.794 444.581C393.817 443.068 408.878 438.004 434.966 433.47C437.414 432.976 439.945 433.058 442.356 433.712C444.767 434.366 446.993 435.573 448.856 437.237C452.812 441.752 455.834 447.007 457.75 452.697C459.665 458.386 460.435 464.399 460.014 470.388C459.497 477.254 461.211 490.636 452.964 497.155C450.62 499 448.21 500.727 445.734 502.338Z" fill="#02B1DF"/>
<path d="M440.424 493.248C413.042 510.786 378.506 515.061 346.67 511.466C333.102 510.205 319.902 506.351 307.788 500.115C305.507 498.9 303.31 497.535 301.211 496.028C302.425 496.905 300.68 495.59 300.334 495.252C299.987 494.914 297.703 492.371 298.812 493.796C295.885 490.021 293.917 485.592 293.077 480.888C289.131 465.253 290.745 448.5 292.367 432.659L279.047 442.804C308.643 450.999 338.861 456.984 369.771 455.081C385.632 453.765 401.375 451.288 416.874 447.671C420.82 446.843 424.736 446.031 428.682 445.264C432.142 444.104 435.788 443.604 439.433 443.791C444.44 444.979 446.886 452.841 448.048 457.212C449.549 464.418 449.948 471.809 449.232 479.135C449.288 481.63 448.897 484.116 448.079 486.474C446.729 489.543 443.199 491.385 440.415 493.235C429.19 500.689 439.718 518.942 451.034 511.409C458.953 506.148 465.67 500.842 468.524 491.398C470.095 484.67 470.755 477.761 470.488 470.857C470.874 453.849 464.863 429.953 446.571 423.964C437.188 420.895 426.788 424.188 417.479 426.091C408.811 427.844 400.183 429.826 391.479 431.392C373.83 434.442 355.85 435.107 338.023 433.369C319.937 431.372 302.069 427.734 284.642 422.5C283.081 422.101 281.451 422.061 279.873 422.382C278.295 422.703 276.81 423.376 275.529 424.352C274.247 425.328 273.203 426.581 272.475 428.017C271.746 429.453 271.352 431.035 271.322 432.646C268.546 459.768 265.828 497.278 291.521 514.833C318.942 533.568 357.644 536.116 389.59 532.126C411.364 529.897 432.362 522.82 451.043 511.413C462.416 504.144 451.876 485.917 440.424 493.248Z" fill="#211715"/>
<path d="M542.768 611.961H465.289C463.843 611.961 462.455 612.536 461.432 613.558C460.41 614.581 459.835 615.969 459.835 617.415V641.013C459.833 641.728 459.973 642.436 460.245 643.097C460.517 643.758 460.918 644.359 461.423 644.866C461.928 645.372 462.528 645.774 463.188 646.048C463.849 646.322 464.557 646.463 465.272 646.463H542.751C544.193 646.457 545.574 645.88 546.592 644.859C547.61 643.838 548.182 642.455 548.183 641.013V617.415C548.188 615.974 547.62 614.59 546.605 613.567C545.589 612.545 544.209 611.967 542.768 611.961Z" fill="#FEBE69"/>
<path d="M542.768 601.435H477.505C470.928 601.435 462.777 600.12 456.928 603.803C454.595 605.312 452.675 607.38 451.345 609.82C450.015 612.26 449.316 614.993 449.312 617.772C449.102 623.63 449.312 629.536 449.312 635.398C449.312 637.209 449.233 639.037 449.312 640.848C449.332 644.235 450.405 647.533 452.383 650.283C454.361 653.033 457.147 655.098 460.352 656.194C464.42 657.085 468.599 657.355 472.748 656.996H525.362C531.465 656.996 537.752 657.413 543.838 656.886C547.846 656.564 551.59 654.761 554.34 651.828C557.091 648.895 558.65 645.043 558.715 641.023C558.965 635.323 558.715 629.523 558.715 623.801C558.715 621.683 558.807 619.539 558.715 617.426C558.604 613.227 556.888 609.23 553.92 606.258C550.952 603.286 546.958 601.565 542.76 601.449C539.975 601.468 537.309 602.583 535.34 604.552C533.371 606.521 532.256 609.187 532.237 611.971C532.296 614.744 533.424 617.386 535.384 619.347C537.345 621.307 539.987 622.435 542.76 622.494C539.997 622.218 537.406 618.829 537.669 617.785C537.597 618.444 537.597 619.108 537.669 619.767V634.617C537.391 636.567 537.391 638.547 537.669 640.497C538.213 641.926 538.774 637.906 539.155 637.428L542.742 635.942H467.07C466.475 635.856 465.871 635.856 465.276 635.942C469.542 634.354 469.56 641.269 470.362 641.014C470.38 640.692 470.38 640.368 470.362 640.045C470.533 637.984 470.533 635.912 470.362 633.85C470.362 628.891 470.801 623.722 470.362 618.785C470.336 618.478 470.498 617.794 470.362 617.518C469.898 616.536 489.4 600.48 468.88 620.999C465.509 624.371 464.009 621.977 467.048 622.485C473.099 622.961 479.179 622.961 485.23 622.485H542.773C556.308 622.481 556.33 601.435 542.768 601.435Z" fill="#211715"/>
<path d="M587.866 780.808C546.143 803.112 504.521 825.605 462.776 847.865L447.575 855.963C441.779 859.032 436.763 862.715 436.136 869.809C435.531 876.693 440.082 883.007 443.195 888.895C450.292 902.28 457.389 915.669 464.486 929.062C472.668 944.565 480.801 960.095 488.746 975.722C492.06 982.237 495.322 988.766 498.532 995.343C499.869 998.845 501.836 1002.07 504.337 1004.87C509.98 1010.26 516.811 1009.48 523.326 1006.53C565.818 987.82 607.333 966.968 647.711 944.052C667.121 932.78 686.891 922.099 701.912 905.03C715 890.762 724.126 873.317 728.382 854.428C732.489 834.763 732.201 814.433 727.54 794.891C723.883 779.243 718.797 763.827 714.005 748.498C696.028 691.061 676.548 633.874 655.186 577.585C645.944 551.496 631.632 527.493 613.073 506.96C600.765 495.17 586.698 485.367 571.376 477.903C552.812 468.027 533.715 459.187 514.171 451.425C505.736 448.036 497.217 444.849 488.566 442.06C475.649 437.886 470.116 458.199 482.971 462.356C508.8 470.915 533.845 481.681 557.828 494.534C567.721 499.622 577.244 505.399 586.327 511.822C594.614 518.03 601.931 525.437 608.04 533.797C615.281 543.571 621.593 554 626.893 564.949C628.365 568.74 630.102 572.424 632.089 575.972C633.268 577.664 631.185 573.631 631.65 574.867C632.286 576.621 633.049 578.375 633.728 580.128C638.928 593.624 643.813 607.247 648.68 620.865C664.078 663.895 678.933 707.139 692.661 750.739C699.593 772.776 708.62 796.07 710.107 819.247C712.216 842.898 705.421 866.484 691.052 885.388C680.996 897.582 668.72 907.761 654.875 915.386C638.775 925.032 622.513 934.433 605.979 943.325C589.682 952.094 573.029 960.109 556.307 968.027C548.663 971.649 541.006 975.241 533.336 978.804C529.522 980.581 525.704 982.351 521.884 984.114L517.214 986.275L514.185 987.674C511.899 988.615 512.217 988.64 515.14 987.749L519.784 990.454C517.996 988.123 516.622 985.503 515.723 982.706C514.016 979.219 512.292 975.742 510.55 972.276C506.662 964.535 502.716 956.822 498.712 949.134C490.323 932.935 481.838 916.787 473.259 900.69C469.787 894.139 466.311 887.593 462.833 881.051C461.456 878.453 460.08 875.854 458.703 873.256C458.255 872.109 457.677 871.017 456.98 870.002C455.726 868.687 457.304 866.144 455.41 872.598C453.621 878.688 455.87 875.378 459.15 873.633C481.64 861.663 504.106 849.657 526.549 837.614C550.537 824.758 574.48 811.815 598.481 798.986C610.433 792.598 599.797 774.433 587.862 780.812L587.866 780.808Z" fill="#211715"/>
<path d="M132.903 798.981C176.515 822.294 220.019 845.804 263.662 869.059L271.278 873.115C272.775 874.141 274.383 874.997 276.07 875.666L277.031 876.18C276.738 869.077 275.978 866.795 274.75 869.335C273.229 871.585 271.956 873.993 270.954 876.517C267.621 882.802 264.286 889.086 260.948 895.371C252.62 911.053 244.344 926.762 236.118 942.5C231.471 951.421 226.873 960.368 222.325 969.342C220.431 973.095 218.554 976.855 216.695 980.623C215.552 984.159 213.834 987.482 211.609 990.458L216.252 987.752L218.699 988.366L215.704 986.981L211.083 984.845C207.868 983.355 204.642 981.86 201.406 980.36C193.839 976.852 186.284 973.32 178.743 969.763C163.954 962.778 149.152 955.798 134.652 948.226C119.793 940.465 105.166 932.253 90.6971 923.791C78.0785 916.407 64.5084 909.568 53.6523 899.676C35.4877 883.875 24.0097 861.759 21.5444 837.811C19.225 813.121 26.7138 789.958 33.8211 766.659C47.286 722.423 62.2723 678.635 77.6663 635.048C83.3355 619.023 89.0661 603.015 95.0246 587.099C96.5504 583.022 98.2604 578.992 99.7336 574.893C100.071 573.963 98.1596 577.69 99.2951 575.998C101.244 572.43 102.979 568.749 104.491 564.975C107.665 558.56 111.068 552.26 114.86 546.183C120.717 536.158 127.919 526.982 136.265 518.911C145.478 510.941 155.586 504.069 166.387 498.436C192.513 483.82 219.984 471.751 248.421 462.395C261.259 458.247 255.765 437.916 242.827 442.099C223.847 448.421 205.265 455.881 187.183 464.438C170.551 471.749 154.535 480.388 139.291 490.272C131.525 495.185 124.339 500.96 117.868 507.485C112.471 513.463 107.45 519.77 102.833 526.369C93.3479 539.818 85.4624 554.326 79.3368 569.601C71.471 588.849 64.7627 608.623 57.8264 628.226C46.5231 660.145 35.61 692.202 25.0872 724.396C19.9792 740.137 15.0028 755.921 10.2982 771.793C4.81317 790.348 -0.224642 808.965 0.00773724 828.498C-0.0216961 846.141 3.94617 863.561 11.6135 879.45C21.3546 898.319 35.7862 914.365 53.5207 926.045C93.8583 952.168 137.142 973.503 180.593 993.803C189.985 998.188 199.359 1002.64 208.816 1006.9C211.57 1008.47 214.739 1009.16 217.898 1008.89C221.057 1008.61 224.057 1007.38 226.499 1005.36C229.287 1002.5 231.454 999.101 232.865 995.368C239.88 980.939 247.238 966.694 254.647 952.475C262.63 937.143 270.689 921.849 278.824 906.591C282.039 900.549 285.244 894.511 288.439 888.478C291.666 882.397 296.638 875.614 295.073 868.436C294.399 865.785 293.118 863.326 291.332 861.254C289.545 859.182 287.302 857.554 284.778 856.497L266.74 846.887C256.252 841.292 245.767 835.69 235.285 830.081C214.415 818.909 193.555 807.721 172.705 796.517C162.977 791.291 153.254 786.063 143.535 780.834C131.592 774.45 120.95 792.611 132.911 799.008L132.903 798.981Z" fill="#211715"/>
<path d="M250.338 507.512C260.793 500.494 269.984 491.757 277.522 481.67C276.412 479.152 275.588 476.518 275.066 473.817C273.501 466.356 274.076 458.605 276.724 451.456C269.16 421.124 240.043 405.155 223.232 402.218C194.54 397.053 166.497 388.135 139.747 381.198C138.967 381.125 138.189 381.365 137.586 381.865C136.982 382.365 136.602 383.084 136.529 383.864C134.919 399.679 132.552 414.815 138.603 425.579C142.575 432.66 142.588 433.764 155.658 443.033C141.968 448.028 127.979 452.162 113.773 455.411C112.132 455.812 110.606 456.588 109.316 457.679C108.025 458.77 107.006 460.145 106.337 461.696C105.668 463.248 105.368 464.934 105.461 466.621C105.554 468.308 106.037 469.95 106.872 471.419C121.406 495.744 153.045 515.531 179.116 520.644C191.268 523.243 203.813 523.421 216.034 521.167C228.255 518.914 239.911 514.274 250.338 507.512Z" fill="#02B1DF"/>
<path d="M226.986 427.743C205.547 420.864 182.401 421.512 161.38 429.581C147.76 434.754 133.887 439.238 119.815 443.015C113.361 444.672 106.508 445.711 101.527 450.565C99.2713 452.752 97.5154 455.401 96.3802 458.331C95.2449 461.261 94.7571 464.401 94.9504 467.537C95.801 479.507 107.543 490.986 115.873 498.667C125.041 507.128 135.327 514.29 146.442 519.954C165.552 530.005 187.123 534.422 208.645 532.691C236.184 529.892 261.593 516.615 279.618 495.607C288.571 485.501 273.738 470.563 264.737 480.726C251.927 496.035 234.348 506.6 214.819 510.729C199.124 513.647 182.93 512.207 167.997 506.564C149.262 499.876 132.753 488.119 120.306 472.601C119.008 470.949 117.818 469.215 116.741 467.41C116.741 467.41 115.816 465.306 115.65 466.454C115.97 464.262 124.419 463.547 126.37 463.043C138.849 459.886 151.124 455.969 163.125 451.315C173.564 446.78 184.735 444.165 196.101 443.593C204.715 443.659 213.258 445.152 221.382 448.013C234.339 452.073 239.881 431.764 226.977 427.721L226.986 427.743Z" fill="#211715"/>
<path d="M157.215 431.261C155.522 430.045 153.911 428.72 152.392 427.293C151.861 426.78 151.344 426.254 150.853 425.701C150.046 424.798 151.441 426.723 150.458 425.114C148.457 422.18 146.943 418.942 145.977 415.525C145.14 411.1 144.929 406.579 145.35 402.095C145.244 396.53 145.81 390.973 147.034 385.544L144.329 390.187L143.943 390.345L138.633 391.783C142.02 392.218 145.333 393.102 148.485 394.413C152.388 395.474 156.281 396.557 160.174 397.636C168.093 399.828 176.003 402.021 183.952 404.099C191.989 406.199 200.056 408.185 208.176 409.93C214.1 411.202 220.194 411.965 226.008 413.688C234.574 416.292 242.478 420.712 249.18 426.648C257.635 433.89 263.701 443.519 266.582 454.271C270.024 467.354 290.329 461.808 286.878 448.672C282.83 434.598 275.028 421.892 264.307 411.916C253.587 401.939 240.353 395.069 226.026 392.041C205.024 387.911 184.434 382.487 163.814 376.779C158.964 375.437 154.112 374.11 149.257 372.798C143.733 371.316 138.204 369.29 132.824 372.425C123.888 377.625 124.892 392.09 124.353 401.148C123.309 411.34 125.093 421.622 129.509 430.866C133.658 438.314 139.519 444.669 146.609 449.404C149.023 450.794 151.888 451.177 154.583 450.47C157.277 449.764 159.585 448.024 161.008 445.629C162.351 443.204 162.708 440.355 162.005 437.673C161.302 434.992 159.593 432.684 157.232 431.23L157.215 431.261Z" fill="#211715"/>
<path d="M278.79 433.257C274.424 435.915 270.857 439.702 268.464 444.218C265.775 449.761 264.196 455.777 263.816 461.927C263.285 472.823 265.908 483.641 271.371 493.083C272.796 495.475 275.104 497.211 277.798 497.918C280.491 498.624 283.354 498.243 285.77 496.858C288.135 495.41 289.848 493.103 290.552 490.42C291.255 487.738 290.895 484.887 289.545 482.464C289.027 481.504 288.523 480.539 288.041 479.561C287.8 479.07 287.567 478.575 287.335 478.075C286.859 476.994 286.886 477.083 287.418 478.343C286.566 476.719 285.974 474.972 285.665 473.164C285.41 472.182 285.226 471.2 285.059 470.205C284.647 467.956 285.165 472.143 285.002 469.683C284.826 467.642 284.753 465.593 284.783 463.545C284.704 462.598 284.767 461.645 284.972 460.717C284.758 462.178 284.745 462.308 284.932 461.107C285.024 460.572 285.13 460.037 285.244 459.511C285.573 457.596 286.153 455.733 286.967 453.969C285.537 456.639 287.129 453.877 287.436 453.373L287.778 452.829C288.412 451.917 288.232 452.129 287.238 453.465C287.716 453.285 288.554 452.11 288.949 451.711C289.784 451.01 289.571 451.166 288.308 452.18C288.672 451.921 289.041 451.676 289.418 451.435C291.828 450.026 293.579 447.718 294.287 445.017C294.995 442.317 294.601 439.446 293.193 437.036C291.784 434.626 289.476 432.874 286.775 432.166C284.075 431.458 281.204 431.852 278.794 433.261L278.79 433.257Z" fill="#211715"/>
<path d="M519.135 268.423C521.474 266.26 524.219 264.582 527.21 263.487C530.202 262.392 533.381 261.902 536.564 262.044C540.61 261.911 544.616 262.879 548.155 264.845C551.694 266.811 554.633 269.701 556.658 273.207C563.489 285.045 563.2 306.871 558.618 320.371C555.369 329.934 550.051 344.56 537.235 355.048C534.124 357.674 530.44 359.529 526.479 360.466C522.518 361.402 518.392 361.392 514.435 360.437C507.259 383.855 495.218 405.494 479.1 423.938C465.074 440.597 447.553 453.963 427.78 463.089C408.007 472.215 386.467 476.876 364.691 476.74C352.758 476.055 340.893 474.47 329.198 472.001C298.036 465.924 269.915 449.305 249.562 424.937C233.627 406.155 221.864 384.203 215.051 360.533C211.141 361.411 207.08 361.372 203.187 360.421C199.293 359.469 195.672 357.63 192.607 355.048C179.787 344.56 174.468 329.934 171.224 320.371C166.642 306.871 166.353 285.049 173.179 273.207C175.204 269.701 178.143 266.811 181.682 264.845C185.221 262.879 189.227 261.911 193.273 262.044C196.456 261.901 199.636 262.391 202.627 263.487C205.619 264.582 208.364 266.26 210.702 268.423C210.702 268.423 154.672 111.282 364.91 111.08C575.148 110.879 519.135 268.423 519.135 268.423Z" fill="white"/>
<path d="M547.713 81.3533C541.965 66.162 532.957 52.4154 521.323 41.0815C508.914 27.9458 493.039 18.5924 475.535 14.1035C456.449 8.93415 429.875 8.31593 413.205 18.9484L398.802 26.8668C387.282 24.966 375.59 24.325 363.931 24.9552C278.916 20.2638 197.758 84.2339 181.316 164.865C177.087 190.125 177.146 215.916 181.492 241.156C181.492 241.156 184.342 253.433 186.797 262.903C188.924 262.397 191.096 262.103 193.282 262.026C198.369 261.709 203.418 263.098 207.627 265.973C211.836 268.849 214.966 273.047 216.519 277.903C318.31 267.717 373.222 220.123 430.958 171.797C453.494 184.666 478.069 212.573 487.711 228.739C497.419 245.028 505.823 262.059 512.843 279.674C514.057 274.398 517.109 269.726 521.452 266.494C525.796 263.262 531.148 261.682 536.55 262.035C540.622 262.088 544.627 263.086 548.248 264.951C557.32 233.693 551.357 188.489 546.446 164.856C545.832 161.7 545.043 158.543 544.21 155.43L544.162 155.254C554.684 138.94 556.491 116.671 552.448 97.6505C551.28 92.1071 549.698 86.6594 547.713 81.3533Z" fill="#EFD29D"/>
<path d="M359.995 349.531C361.388 354.563 362.503 359.669 363.336 364.824L362.959 362.026C363.061 362.725 363.08 363.433 363.016 364.135L363.393 361.338C363.346 361.662 363.268 361.98 363.16 362.289L364.221 359.773C364.129 359.987 364.017 360.192 363.888 360.387L365.532 358.256C365.385 358.438 365.217 358.602 365.032 358.747L367.163 357.103C366.774 357.343 366.368 357.557 365.949 357.743L368.465 356.682C367.811 356.963 367.125 357.163 366.422 357.278L369.22 356.901C368.583 356.978 367.94 356.978 367.304 356.901L370.101 357.274C369.378 357.173 368.672 356.997 367.948 356.901C366.591 356.465 365.143 356.4 363.752 356.712C362.36 356.776 361.009 357.207 359.837 357.962C358.643 358.659 357.599 359.585 356.763 360.686C355.927 361.787 355.317 363.042 354.966 364.379C354.615 365.716 354.532 367.109 354.72 368.479C354.908 369.848 355.364 371.167 356.062 372.361C356.73 373.548 357.632 374.587 358.714 375.416C359.795 376.245 361.033 376.847 362.354 377.184C364.235 377.434 366.063 377.907 367.979 377.99C370.971 378.005 373.921 377.288 376.572 375.903C378.293 375.089 379.814 373.906 381.026 372.438C382.238 370.97 383.113 369.254 383.588 367.411C384.22 364.492 384.196 361.47 383.518 358.563C382.685 353.639 381.545 348.754 380.277 343.923C379.91 342.59 379.284 341.343 378.435 340.253C377.586 339.162 376.53 338.25 375.328 337.567C374.126 336.885 372.802 336.446 371.43 336.276C370.058 336.105 368.667 336.207 367.334 336.574C364.696 337.312 362.443 339.04 361.047 341.397C359.669 343.864 359.289 346.766 359.986 349.504L359.995 349.531Z" fill="#211715"/>
<path d="M201.569 351.56C208.395 379.538 221.099 405.742 238.837 428.429C257.703 452.022 283.137 469.495 311.927 478.641C326.509 482.847 341.48 485.569 356.61 486.765C373.791 488.222 391.093 486.462 407.628 481.574C435.127 473.654 460.116 458.771 480.178 438.365C503.417 414.116 519.857 384.174 527.843 351.551C531.14 338.398 510.848 332.807 507.551 345.957C494.81 396.716 460.308 441.237 409.956 458.713C396.627 463.25 382.686 465.736 368.61 466.088C354.071 466.123 339.591 464.246 325.541 460.507C300.578 454.295 278.033 440.784 260.786 421.699C240.898 400.268 229.314 373.908 221.873 345.957C218.392 332.882 198.083 338.428 201.577 351.551L201.569 351.56Z" fill="#211715"/>
<path d="M196.947 260.106C192.106 243.112 189.357 225.591 188.761 207.931C187.865 187.297 190.717 166.672 197.179 147.056C211.503 108.727 239.053 76.7789 274.86 56.9759C293.065 46.598 313.047 39.7075 333.779 36.6581C343.782 35.529 353.853 35.1348 363.914 35.4787C377.698 35.0847 391.485 36.162 405.041 38.6925C427.719 43.726 449.176 53.1995 468.175 66.5665C487.174 79.9336 503.339 96.9297 515.737 116.575C528.919 138.652 537.177 163.316 539.948 188.88C543.131 212.832 544.718 238.662 538.115 262.167C534.445 275.229 554.746 280.806 558.411 267.766C565.102 243.945 564.365 218.221 561.594 193.843C559.455 169.023 553.095 144.749 542.789 122.069C519.885 76.3076 480.052 41.2715 431.742 24.3946C404.883 14.9109 376.41 13.1088 348.151 14.3453C324.938 15.4898 302.141 20.945 280.924 30.4321C238.74 49.002 204.516 81.9411 184.346 123.384C173.471 146.788 167.796 172.271 167.711 198.079C167.43 210.734 168.163 223.392 169.903 235.93C171.618 245.965 173.874 255.9 176.66 265.692C180.031 278.798 200.336 273.242 196.956 260.093L196.947 260.106Z" fill="#211715"/>
<path d="M430.94 184.146C464.153 206.463 486.821 242.162 501.343 278.816C502.156 281.461 503.949 283.694 506.355 285.06C508.761 286.426 511.598 286.821 514.286 286.165C516.967 285.407 519.241 283.624 520.617 281.201C521.993 278.779 522.36 275.912 521.639 273.221C504.956 231.108 479.736 191.621 441.564 165.976C439.155 164.567 436.284 164.173 433.584 164.881C430.885 165.588 428.576 167.34 427.168 169.749C425.759 172.158 425.365 175.029 426.072 177.729C426.78 180.429 428.531 182.737 430.94 184.146Z" fill="#211715"/>
<path d="M420.155 167.229C379.479 201.31 337.726 234.518 286.922 252.091C270.004 257.862 252.625 262.182 234.974 265.004C232.295 265.764 230.022 267.547 228.646 269.969C227.27 272.39 226.902 275.256 227.622 277.947C228.419 280.603 230.21 282.849 232.621 284.219C235.033 285.588 237.879 285.975 240.569 285.3C271.558 280.275 301.619 270.634 329.75 256.699C354.438 243.952 377.767 228.731 399.381 211.271C411.473 201.81 423.246 191.944 435.014 182.084C436.975 180.098 438.075 177.42 438.075 174.63C438.075 171.84 436.975 169.161 435.014 167.176C433.012 165.257 430.346 164.186 427.573 164.186C424.8 164.186 422.134 165.257 420.133 167.176L420.155 167.229Z" fill="#211715"/>
<path d="M526.576 275.864C528.305 274.426 530.343 273.407 532.531 272.884C534.719 272.362 536.997 272.351 539.19 272.852C541.364 273.135 543.418 274.012 545.127 275.386C543.706 274.334 548.139 279.28 546.442 276.763C551.58 284.462 551.923 295.428 551.098 305.017C550.051 314.521 547.097 323.716 542.412 332.052C537.085 341.878 529.018 352.037 516.728 350.441C513.941 350.454 511.273 351.567 509.302 353.538C507.332 355.508 506.219 358.177 506.205 360.963C506.273 363.733 507.403 366.37 509.362 368.329C511.321 370.288 513.958 371.418 516.728 371.486C544.855 375.134 562.103 344.741 569.127 321.994C575.419 301.636 575.204 269.958 555.281 256.914C548.545 252.802 540.661 250.976 532.803 251.709C524.946 252.442 517.535 255.695 511.677 260.983C509.73 262.962 508.644 265.63 508.655 268.406C508.667 271.182 509.774 273.841 511.737 275.804C513.7 277.767 516.359 278.875 519.135 278.886C521.911 278.897 524.579 277.811 526.558 275.864H526.576Z" fill="#211715"/>
<path d="M218.151 260.984C212.791 256.178 206.139 253.05 199.019 251.987C191.899 250.924 184.624 251.973 178.094 255.004C173.491 257.337 169.462 260.659 166.295 264.733C163.128 268.806 160.901 273.53 159.775 278.566C156.986 290.433 156.685 302.748 158.892 314.737C161.098 326.725 165.764 338.127 172.595 348.223C181.614 361.644 195.833 373.728 213.104 371.487C215.867 371.4 218.494 370.264 220.449 368.309C222.404 366.354 223.54 363.728 223.627 360.964C223.611 358.178 222.497 355.511 220.527 353.541C218.557 351.571 215.89 350.458 213.104 350.441C200.827 352.037 192.747 341.878 187.419 332.053C182.732 323.718 179.776 314.523 178.729 305.018C177.909 295.446 178.247 284.441 183.39 276.764C181.676 279.32 186.126 274.344 184.705 275.387C186.218 274.158 188.02 273.336 189.941 273.002C192.227 272.378 194.63 272.312 196.947 272.811C199.265 273.309 201.428 274.356 203.256 275.865C205.26 277.78 207.925 278.849 210.697 278.849C213.469 278.849 216.134 277.78 218.137 275.865C220.086 273.879 221.178 271.207 221.178 268.425C221.178 265.642 220.086 262.97 218.137 260.984H218.151Z" fill="#211715"/>
<path d="M418.528 28.0391C430.12 20.923 444.396 20.2566 457.62 21.4623C470.808 22.6256 483.573 26.7067 494.989 33.4101C507.265 40.9388 517.841 50.9366 526.048 62.7693C534.255 74.602 539.912 88.0112 542.662 102.146C546.139 118.471 543.443 135.506 535.095 149.959C527.935 161.5 546.13 172.079 553.268 160.583C572.81 129.08 566.054 86.7698 547.187 56.613C538.309 41.8842 526.3 29.2884 512.011 19.7185C497.722 10.1486 481.503 3.83888 464.504 1.23654C445.532 -1.39417 424.635 -0.398882 407.904 9.86966C396.377 16.9419 406.939 35.1464 418.528 28.0391Z" fill="#211715"/>
<path d="M446.047 311.26C448.168 318.152 446.785 334.018 433.722 335.367C416.455 335.264 415.537 316.084 421.349 307.061C426.107 299.684 440.1 296.614 446.047 311.26Z" fill="#211715"/>
<path d="M284.738 311.255C282.616 318.147 283.999 334.013 297.062 335.377C314.329 335.274 315.247 316.094 309.436 307.071C304.675 299.684 290.682 296.612 284.738 311.255Z" fill="#211715"/>
<path d="M332.627 420.565C343.141 426.466 354.848 429.406 366.677 429.114C378.807 429.029 391.139 426.468 400.866 418.231C402.374 416.574 403.22 414.336 403.22 412.005C403.22 409.673 402.374 407.436 400.866 405.779C399.322 404.179 397.271 403.287 395.139 403.287C393.006 403.287 390.955 404.179 389.411 405.779C391.818 403.739 389.749 405.437 389.145 405.867C388.47 406.351 387.741 406.795 387.015 407.21C386.495 407.507 383.978 408.64 386.026 407.797C385.051 408.2 384.082 408.611 383.087 408.96C377.432 410.93 371.499 411.791 365.567 411.502C359.912 411.679 354.268 410.852 348.858 409.055C347.781 408.706 346.728 408.288 345.668 407.888C345.331 407.76 344.993 407.565 344.656 407.455C346.657 408.09 345.27 407.753 344.73 407.477C343.41 406.802 342.111 406.098 340.822 405.357C338.956 404.228 336.762 403.926 334.696 404.515C332.631 405.104 330.855 406.537 329.738 408.516C328.678 410.538 328.388 412.932 328.931 415.185C329.474 417.437 330.807 419.368 332.644 420.565H332.627Z" fill="#211715"/>
</svg>
